<?xml version="1.0" encoding="UTF-8"?>
<!DOCTYPE svg PUBLIC "-//W3C//DTD SVG 1.1//EN" "http://www.w3.org/Graphics/SVG/1.1/DTD/svg11.dtd">
<!-- Creator: CorelDRAW 2018 (64-Bit) -->
<svg xmlns="http://www.w3.org/2000/svg" xml:space="preserve" width="121.773mm" height="54.2311mm" version="1.1" style="shape-rendering:geometricPrecision; text-rendering:geometricPrecision; image-rendering:optimizeQuality; fill-rule:evenodd; clip-rule:evenodd"
viewBox="0 0 12177.3 5423.11"
 xmlns:xlink="http://www.w3.org/1999/xlink">
 <defs>
  <style type="text/css">
   <![CDATA[
    .fil3 {fill:#FFFCE9}
    .fil6 {fill:#7F2622}
    .fil2 {fill:#6D2722}
    .fil5 {fill:#FFFCE9;fill-rule:nonzero}
    .fil4 {fill:#7F2622;fill-rule:nonzero}
    .fil1 {fill:url(#id0)}
    .fil0 {fill:url(#id1)}
   ]]>
  </style>
  <linearGradient id="id0" gradientUnits="userSpaceOnUse" x1="193.1" y1="2765.69" x2="11984.5" y2="2765.69">
   <stop offset="0" style="stop-opacity:1; stop-color:#C12C2D"/>
   <stop offset="0.0627451" style="stop-opacity:1; stop-color:#C12C2D"/>
   <stop offset="0.129412" style="stop-opacity:1; stop-color:#E4272A"/>
   <stop offset="0.541176" style="stop-opacity:1; stop-color:#7F2622"/>
   <stop offset="0.870588" style="stop-opacity:1; stop-color:#E4272A"/>
   <stop offset="1" style="stop-opacity:1; stop-color:#C12C2D"/>
  </linearGradient>
  <linearGradient id="id1" gradientUnits="userSpaceOnUse" x1="-0.08" y1="2764.27" x2="12177.48" y2="2764.27">
   <stop offset="0" style="stop-opacity:1; stop-color:#FDF399"/>
   <stop offset="0.101961" style="stop-opacity:1; stop-color:#FBEA09"/>
   <stop offset="0.231373" style="stop-opacity:1; stop-color:#FECA07"/>
   <stop offset="0.568627" style="stop-opacity:1; stop-color:#FCDA00"/>
   <stop offset="0.839216" style="stop-opacity:1; stop-color:#FBEA09"/>
   <stop offset="1" style="stop-opacity:1; stop-color:#FDF399"/>
  </linearGradient>
 </defs>
 <g id="Layer_x0020_1">
  <metadata id="CorelCorpID_0Corel-Layer"/>
  <g id="_2545623279216">
   <path class="fil0" d="M4428.79 315.18c1139.67,-427.66 2195.17,-412.64 3335.79,-0.31l3766.17 1258.67c424.8,126.34 632.95,649.4 645.83,1054.84 13.22,416.33 -157.52,818.03 -541,1015.2l-9.66 4.96 -3851.29 1460.85c-25.66,11.41 -51.33,22.73 -77.35,33.35 -492.8,201.3 -1069.92,280.37 -1599.61,280.37 -529.7,0 -1107.72,-78.81 -1600.47,-280.41 -26.03,-10.65 -51.8,-21.9 -77.52,-33.31l-3848.8 -1461.73 -11.63 -6.36c-154.77,-84.55 -281.56,-206.44 -375.2,-355.6 -100.38,-159.87 -158.47,-344.14 -177.35,-531.47 -47.14,-467.71 154.12,-1007.4 625.19,-1178.01l2.43 -0.88 3794.47 -1260.16z"/>
   <path class="fil1" d="M4493.18 497.22l-3795.55 1260.52c-623.19,225.71 -704.37,1354.36 -45.82,1714.14l0 0 3841.37 1458.91c25.34,11.26 50.8,22.26 77.13,33.23l0 0c405.04,165.52 940.13,266.03 1527.36,266.03 586.8,0 1121.46,-100.51 1526.61,-266.03l0 0c26.92,-10.97 51.53,-21.97 76.86,-33.23l0 0 3846.16 -1458.91c707.8,-363.91 462.01,-1558.22 -74.42,-1714.12l-3771.74 -1260.54c-1094.2,-396.01 -2103.77,-415.17 -3207.96,0l0 0z"/>
   <path class="fil2" d="M6988.18 4742.03c0,10.3 9.49,17.43 27.56,19.65 17.92,3.77 28.8,5.84 31.41,8.58 3.39,1.29 4.73,6.03 4.73,12.53 0,13.02 -11.54,20 -34.56,20 -8.37,0 -24.35,-0.78 -46.86,-1.94 -23.04,-0.85 -47.6,-2.02 -73.23,-2.02 -25.35,0 -45.59,0 -60.91,1.17 -14.79,0.85 -29.95,2.01 -45.15,2.79 -15.26,0 -25.19,-1.57 -31.17,-4.58 -3.98,-2.98 -6.94,-8.15 -6.94,-16.51 0,-5.41 3.48,-8.71 9.39,-12.24 6.92,-3.45 13.53,-5.38 21.08,-5.38 15.69,0 27.36,-3.9 34.35,-11.75 6.72,-7.28 10.08,-21.61 10.08,-42.26l0 -83.6c0,-6.12 -2.59,-9.15 -7.79,-9.15l-159.77 0c-4.36,0 -7.13,-2.16 -7.75,-6.17 -1.14,-6.35 -1.44,-18.6 -1.44,-38.03 0,-8.15 25.4,-46.45 75.3,-113.4 50.26,-67.32 95.91,-127.88 135.65,-182.38 40.49,-54.23 64.09,-82.09 70,-85.62 7.33,-3.25 17.33,-5.18 31.75,-5.18 7.62,0 14.9,1.16 21.08,3.75 0,3.36 -23.77,34.93 -70.14,94.32 -46.41,61.26 -92.43,121.1 -139.46,183.23 -47.45,60.71 -70.78,93.74 -70.78,99.53 0,3.73 3.26,5.75 10.04,5.75l101.79 0c5.98,0 8.16,-2.02 9.37,-6.55 1.57,-5.41 2.15,-15.78 2.15,-31.68l0 -104.19c0,-3.81 1.95,-7.87 6.13,-10.09 4.23,-3.52 16.49,-9.27 36.29,-17.06 19.72,-8.57 42.53,-19.07 67.37,-30.58 25.36,-11.75 40.63,-17.86 44.65,-17.86 4.27,0 5.78,4.3 5.78,11.72l0 199.08c0,4.53 2.59,7.21 6.17,7.21l62.86 0c5.76,0 9.01,1.57 10.15,5.9 1.44,3.81 1.8,9.51 1.8,17.28 0,14.85 -3.59,21.02 -11.95,21.02l-57.53 0c-7.5,0 -11.5,2.37 -11.5,7.13l0 117.58z"/>
   <path class="fil3" d="M6942.97 4697.86c0,10.37 8.71,17.37 26.64,20.54 17.56,2.23 28.01,4.95 31.19,7.69 2.95,1.82 4.88,5.92 4.88,12.68 0,13.53 -11.44,19.88 -34.55,19.88 -8.36,0 -24.35,0 -46.81,-1.6 -23.26,-1.93 -47.23,-1.93 -73.46,-1.93 -25.48,0 -45.63,0 -60.98,0.79 -14.47,1.14 -30.17,1.57 -45.43,2.74 -14.75,0 -25.19,-1.6 -30.22,-4.67 -5.34,-2.69 -7.14,-8.1 -7.14,-16.02 0,-5.95 2.96,-9.99 9.57,-13.24 6.12,-3.22 13.34,-4.76 21.03,-4.76 15.42,0 27.22,-3.95 33.7,-11.73 7.2,-7.63 11.08,-21.65 11.08,-41.82l0 -84.68c0,-5.1 -3.09,-8.56 -9.28,-8.56l-158.99 0c-3.81,0 -6.41,-2.1 -7.91,-6.55 -1.03,-5.49 -1.03,-17.86 -1.03,-37.24 0,-8.84 24.58,-46.35 74.62,-113.96 50.82,-67.18 95.96,-127.67 136.01,-181.88 40.69,-54.37 64.16,-83.16 70.27,-85.54 6.63,-3.47 17.49,-5.4 31.45,-5.4 8.1,0 15.26,1.21 21.35,3.75 0,2.8 -23.43,34.19 -70.51,94.97 -45.67,60.56 -92.61,120.45 -139.3,182.01 -46.84,61.28 -70.31,93.89 -70.31,99.43 0,4.47 3.6,6.62 10.15,6.62l102.03 0c4.82,0 7.78,-2.15 8.91,-7.56 1.05,-5.17 2.54,-15.91 2.54,-31.24l0 -104.67c0,-3.48 1.11,-7.07 5.64,-9.45 4.21,-2.74 16.47,-8.5 36.49,-16.62 19.37,-8.57 41.68,-19.3 66.62,-31.05 25.77,-12.3 40.43,-17.77 44.97,-17.77 3.74,0 6.78,4.3 6.78,11.59l0 198.8c0,5.32 1.24,7.97 4.74,7.97l63.39 0c5.68,0 8.9,1.97 9.86,5.77 1.22,3.97 2.3,8.86 2.3,17.21 0,14.26 -4.05,20.81 -12.16,20.81l-56.76 0c-8.56,0 -11.37,2.01 -11.37,7.34l0 117.35z"/>
   <path class="fil2" d="M6315.29 4232.3c44.49,0 84.76,9.85 120.91,29.15 36.72,18.93 54.77,48.04 54.77,88.15 0,28.2 -11.86,50.89 -35.27,66.73 -27.52,13.82 -44.48,21.16 -50.83,24.61 -5.22,3.03 -10.38,5.41 -14.98,7.3 -3.38,0.85 -5.1,2.22 -5.1,4.15 0,1.88 10.85,8.66 31.95,19.52 21.9,11.08 43.62,26.57 65.86,47.23 22.43,21.24 33.22,56.88 33.22,106.78 0,61.55 -22.1,108.01 -65.39,140.06 -43.74,31.52 -98.77,47.29 -164.57,47.29 -52.23,0 -97.23,-12.38 -136.1,-38.38 -38.44,-27.06 -57.39,-64.23 -57.39,-112.26 0,-26.12 9.44,-49.16 27.02,-69.38 18.43,-20.11 34.84,-33.21 51.6,-38.88 16.27,-5.05 27.15,-8.86 34.13,-11.76 7.36,-2.23 11.46,-4.74 11.46,-7.41 0,-0.36 -1.81,-2.73 -4.89,-5.7 -2.67,-1.7 -11.1,-7.69 -25.71,-16.32 -14.99,-8.51 -31.75,-22.05 -49.61,-40.62 -18.2,-18.29 -27.44,-44.34 -27.44,-79.41 0,-52.07 19.59,-91.23 58.47,-118.89 39.45,-27.72 88.79,-41.96 147.89,-41.96zm-57.83 333.58c-12.66,0 -24.74,10.14 -38.42,31.52 -12.75,20.24 -18.94,42.79 -18.94,65.23 0,32.76 7.76,59.77 23.61,81.09 16.13,20.3 39.51,31.17 70.49,31.17 23.26,0 42.18,-8.91 56.94,-27.06 15.19,-17.86 22.32,-39.11 22.32,-62.49 0,-25.78 -13.32,-52 -40.53,-79.64 -26.56,-27.01 -51.6,-39.82 -75.47,-39.82zm51.27 -294.7c-19.06,0 -35.13,4.76 -48.07,13.44 -12.56,9.94 -18.38,25.29 -18.38,46.97 0,21.45 13.6,42.98 39.98,62.13 26.05,20.45 47.51,30.44 63.43,30.44 9.87,0 18.44,-7.83 25.96,-23.67 8.21,-16.49 11.77,-32.54 11.77,-49.25 0,-23.47 -6.35,-43.12 -19.29,-57.67 -12.47,-15.05 -30.11,-22.39 -55.4,-22.39z"/>
   <path class="fil3" d="M6269.2 4188.47c44.53,0 84.65,9.74 120.69,29.26 36.71,19.22 54.86,48.59 54.86,88.18 0,27.51 -11.94,49.2 -34.77,65.89 -28.3,14.12 -45,21.75 -50.98,25.2 -5.61,3.53 -10.82,5.11 -14.9,6.55 -4.3,1.22 -5.9,2.83 -5.9,4.67 0,2.31 10.74,8.58 32.7,19.17 20.8,11.08 42.89,26.86 65.3,47.88 21.66,21.6 33.4,56.88 33.4,105.77 0,61.5 -21.69,108.64 -65.15,140.39 -44.31,32.27 -98.72,48.03 -164.82,48.03 -51.98,0 -97.1,-13.54 -136.17,-39.53 -38.38,-25.84 -57.74,-63.5 -57.74,-111.38 0,-26 9.3,-48.46 27.74,-69.27 18.42,-19.85 34.98,-33.04 51.38,-38.94 16.13,-5.12 27.24,-8.8 34.02,-10.88 7.4,-3.39 11.36,-5.84 11.36,-8 0,-0.93 -1.43,-3.74 -5.17,-6.19 -1.82,-1.59 -10.82,-7.05 -25.45,-15.83 -14.76,-9.29 -31.32,-22.82 -50.37,-41.27 -17.6,-17.64 -26.22,-44.41 -26.22,-79.19 0,-51.98 19.38,-91 58.68,-119.32 38.51,-27.28 88.19,-41.19 147.51,-41.19zm-58.38 332.95c-12.64,0 -24.84,10.73 -37.66,31.82 -12.96,19.88 -19.99,42.04 -19.99,65.31 0,33.19 8.63,59.53 23.95,80.42 16.43,21.38 40.04,30.96 70.89,30.96 22.87,0 42.46,-8.5 57,-25.84 14.89,-18.79 22.4,-39.25 22.4,-62.72 0,-25.98 -13.68,-52.34 -40.55,-79.79 -26.8,-26.69 -52.11,-40.16 -76.04,-40.16zm51.85 -294.41c-19.08,0 -34.92,4.9 -48.23,14.32 -11.7,9.15 -18.43,24.99 -18.43,46.44 0,20.89 13.01,41.98 39.65,61.78 25.88,20.67 48.11,30.02 63.94,30.02 10.17,0 18.52,-7.77 25.57,-23.24 8.85,-15.78 12.18,-33.06 12.18,-49.77 0,-22.6 -6.36,-42.03 -19.23,-56.59 -12.39,-14.84 -30.96,-22.96 -55.45,-22.96z"/>
   <path class="fil2" d="M5711.36 4845.39c-22.03,11.44 -45.43,22.05 -70.83,32.55 -25.29,9.58 -42.73,14.67 -50.86,14.67 -16.49,0 -24.63,-5.09 -24.63,-16.69 0,-5.04 4.41,-9.94 12.53,-15.26 7.7,-3.83 31.98,-14.91 72.09,-32.91 39.86,-18.36 77.6,-56.23 112.51,-114.61 35.07,-57.17 52.85,-124.65 52.85,-201.9 0,-65.89 -7.57,-121.63 -22.89,-166.12 -15.83,-45.71 -31.32,-68.19 -47.58,-68.19 -9.94,0 -17.29,4.33 -22.49,14.78 -3.79,10.21 -5.76,29.37 -5.76,57.31 0,47.95 3.76,86.97 12.35,117.5 9.27,30.39 18.62,46.29 28.12,48.11 10.1,2 17.09,5.9 21.28,9.92 4,4.83 6.6,8.71 6.6,15.7 0,17.71 -9.81,34.14 -30.04,48.81 -18.51,14.33 -38.31,22.04 -58.9,22.04 -43.91,0 -77.48,-18.5 -100.51,-53.43 -23.15,-36.29 -34.75,-76.74 -34.75,-121.68 0,-55.52 19.49,-103.26 57.59,-142.77 38.58,-40.7 86.38,-60.92 144.13,-60.92 69.51,0 121.11,23.61 155.46,70.35 35,46.37 52.98,103.1 52.98,171.73 0,75.37 -24.19,146.02 -73.29,211.9 -48.59,65 -111.08,118.65 -185.96,159.11z"/>
   <path class="fil3" d="M5665.15 4800.89c-21.65,11.51 -45.64,22.39 -70.93,33.05 -25.41,9.43 -42.21,14.38 -51.11,14.38 -15.36,0 -23.67,-5.47 -23.67,-16.11 0,-5.34 3.75,-10.86 11.95,-15.48 8.13,-4.33 32.18,-14.69 72.06,-32.91 40.05,-18.45 77.4,-57.02 112.91,-113.83 35.55,-58.03 52.26,-125.99 52.26,-202.1 0,-66.68 -7.42,-122.42 -22.82,-167.26 -15.56,-45.38 -31.26,-68.33 -47.11,-68.33 -10.14,0 -17.48,5.18 -22.17,15.7 -4.37,9.93 -6.19,28.93 -6.19,57.31 0,47.73 3.61,87.12 12.96,117.29 8.06,29.79 17.37,45.72 27.5,48.73 9.25,1.23 16.51,4.33 20.82,9.29 4.61,3.96 7.07,9.57 7.07,15.27 0,18.43 -10.59,34.34 -29.67,48.68 -19.44,14.67 -38.68,22.02 -59.33,22.02 -43.93,0 -77.62,-17.86 -100.88,-53.41 -22.81,-35.86 -33.99,-75.83 -33.99,-120.75 0,-56.16 19.08,-104.13 57.02,-143.93 38.18,-40.26 86.35,-59.98 144.53,-59.98 68.66,0 120.37,22.96 154.85,69.62 35.22,47.17 53,103.62 53,172.51 0,75.18 -24.74,145.96 -73,211.25 -49.1,65.68 -110.67,118.29 -186.06,158.99z"/>
   <path class="fil2" d="M5214.84 4360.96c0,-14.9 -7.92,-22.03 -23.4,-22.03 -9.7,0 -20.01,1.58 -30.37,6.19 -9.95,3.9 -16.5,6.12 -20.25,6.12 -7.61,0 -11.15,-5.18 -11.15,-15.32 0,-6.13 3.31,-11.74 10.1,-16.78 6.38,-4.61 23.5,-12.62 50.88,-21.33 27.14,-9.49 62.36,-22.81 105.55,-39.66 42.92,-16.85 65.77,-25.85 68.92,-25.85 7.12,0 10.15,5.97 10.15,17.63l0 461.98c0,18.06 3.15,31.25 8.55,38.79 5.91,6.78 17.23,10.95 33.33,13.33 16.08,1.95 24.23,8.92 24.23,19.79 0,12.97 -8.15,19.02 -24.23,19.02 -10.05,-0.87 -24.02,-1.58 -42.23,-2.89 -19.1,-1.08 -45.29,-1.08 -80.08,-1.08 -29.96,0 -53.15,0 -70.7,1.08 -17.22,0.94 -34.04,2.02 -51.34,2.89 -15.76,0 -23.9,-6.05 -23.9,-19.02 0,-5.68 2.22,-10.35 6.78,-12.3 4.01,-2.02 12.88,-4.75 26.83,-6.49 14.05,-3.38 22.84,-7.55 27.15,-13.75 2.68,-5.76 5.18,-19.29 5.18,-39.37l0 -350.95z"/>
   <path class="fil3" d="M5168.41 4316.45c0,-14.53 -7.57,-21.89 -23.19,-21.89 -9.6,0 -19.98,2.17 -30.66,6.05 -9.73,4.7 -16.57,5.91 -19.46,5.91 -8.35,0 -12.1,-4.6 -12.1,-14.83 0,-5.84 3.75,-11.81 10.59,-16.72 6.84,-5.25 23.83,-11.94 50.98,-21.36 26.86,-9.24 62.35,-22.33 104.98,-39.4 43.33,-17.07 66.73,-25.69 69.69,-25.69 6.78,0 10.03,5.61 10.03,16.33l0 462.83c0,18.21 2.36,31.25 8.63,39.46 5.84,5.97 17.13,11.29 32.97,12.81 16.14,1.51 24.03,8.06 24.03,18.94 0,13.39 -7.89,19.72 -24.03,19.72 -9.67,0 -23.97,-1.57 -42.4,-2.66 -18.52,-0.79 -45.52,-0.79 -79.28,-0.79 -29.82,0 -54.14,0 -71.5,0.79 -17.22,1.09 -34.07,1.52 -51.08,2.66 -16.39,0 -23.6,-6.33 -23.6,-19.72 0,-5.56 1.82,-9.29 6.06,-11.02 4.3,-3.16 13.41,-4.82 27.15,-7.2 14.04,-2.6 22.96,-7.56 26.66,-13.11 3.71,-6.76 5.53,-20.09 5.53,-39.88l0 -351.23z"/>
   <polygon class="fil2" points="2314.75,3899.22 9879.19,3899.22 9879.19,3967.13 2314.75,3967.13 "/>
   <polygon class="fil3" points="2273.24,3852.36 9837.71,3852.36 9837.71,3920.47 2273.24,3920.47 "/>
   <path class="fil4" d="M11010.91 1849.89l15.9 0c21.28,0 34.65,-0.56 39.54,-2.38 5.04,-1.37 9.13,-4.7 12.75,-8.22 2.41,-4.27 4.02,-8.8 4.02,-14.51 0,-5.34 -1.61,-9.36 -4.02,-13.49 -3.62,-3.98 -7.71,-7.04 -12.81,-8.3 -5.89,-1.19 -18.63,-2.58 -39.48,-2.58l-15.9 0 0 49.48zm-36.54 103.58l0 -182.25 36.54 0c35.47,0 54.89,0.44 59.21,0.44 11.63,1.07 21.87,3.45 28.08,7.78 7.04,3.45 12.74,9.17 17.79,16.82 4.18,7.99 6.26,16.78 6.26,26.21 0,13.11 -3.76,24.6 -12.82,33.83 -8.17,9.3 -20.46,15.2 -36.37,17.84 6.04,1.76 10.06,4.33 13.19,6.71 2.78,1.96 7.06,6.91 11.95,13.76 1.89,2.34 6.38,9.49 14,22.68l20.98 36.18 -45.78 0 -14.7 -29.27c-10.65,-20.1 -18.91,-32.47 -26,-37.94 -6.85,-5.09 -14.88,-7.6 -25.44,-7.6l-10.35 0 0 74.81 -36.54 0zm78.07 -229.98c-23.52,0 -46.24,6.02 -68.03,17.46 -21.47,12.36 -38.99,29.13 -51.37,51.36 -12.32,21.91 -18.73,45.28 -18.73,69.59 0,23.87 6.41,46.89 18.46,68.63 12.33,21.87 29.48,39.07 50.62,51.56 22.49,11.87 45.03,17.96 69.05,17.96 24.41,0 47.15,-6.09 69.25,-17.96 21.28,-12.49 38.24,-29.69 50.31,-51.56 12.04,-21.74 18.95,-44.76 18.95,-68.63 0,-24.31 -6.91,-47.68 -18.95,-69.59 -12.57,-22.23 -30.03,-39 -51.51,-51.36 -21.78,-11.44 -44.33,-17.46 -68.05,-17.46zm-0.66 -33.22c29.73,0 58.03,6.52 85.23,22.09 26.95,14.51 48.23,35.67 64.02,62.75 15.29,27.88 23.03,56.77 23.03,86.79 0,29.83 -7.3,58.15 -22.67,85.15 -15.28,27.01 -36.26,48.47 -63.68,63.49 -27.21,15.45 -55.96,22.92 -85.93,22.92 -29.57,0 -57.69,-7.47 -85.51,-22.92 -26.7,-15.02 -48.16,-36.48 -62.43,-63.49 -15.49,-27 -23.32,-55.32 -23.32,-85.15 0,-30.02 7.93,-58.91 23.32,-86.79 14.95,-27.08 36.54,-48.24 63.56,-62.75 26.94,-15.57 55.51,-22.09 84.38,-22.09z"/>
   <path class="fil5" d="M10995.45 1841.61l15.16 0c21.38,0 34.82,-1.37 39.77,-2.82 5.77,-1.2 9.32,-4.58 12.39,-8.29 2.99,-4.34 4.69,-8.78 4.69,-14.49 0,-4.72 -1.7,-9.37 -4.69,-13.39 -3.07,-4.26 -6.62,-6.91 -12.39,-8.9 -4.95,-1.4 -18.58,-2.27 -39.77,-2.27l-15.16 0 0 50.16zm-36.57 103.19l0 -182.18 36.57 0c34.86,0 54.32,0 58.68,0.93 12.15,0.51 21.3,3.03 28.29,6.54 6.66,4.02 12.25,9.74 17.43,17.84 4.79,7.78 6.42,16.32 6.42,26.3 0,12.83 -4,24.25 -12.28,33.47 -9,9.49 -21.29,15.2 -36.75,17.09 5.59,2.34 9.85,4.52 13.11,6.91 2.71,2.83 7.05,7.35 12.07,14.56 1.51,1.46 6.15,8.99 12.91,21.81l22.31 36.73 -46.23 0 -14.86 -29.57c-10.51,-19.54 -18.92,-32.42 -25.57,-37.12 -6.78,-5.71 -15.32,-8.09 -25.99,-8.09l-9.54 0 0 74.78 -36.57 0zm77.37 -229.79c-23.66,0 -46.16,5.72 -67.69,17.21 -22,12.13 -38.62,29.03 -51.38,51.26 -12.41,21.97 -18.53,45.34 -18.53,69.69 0,23.55 6.12,46.92 17.98,68.84 12.49,21.98 29.25,38.8 50.76,51.05 22.01,12.06 44.83,18.15 68.86,18.15 24.11,0 47.68,-6.09 68.94,-18.15 21.63,-12.25 39.13,-29.07 50.58,-51.05 12.48,-21.92 18.7,-45.29 18.7,-68.84 0,-24.35 -6.22,-47.72 -19.02,-69.69 -12.17,-22.23 -28.97,-39.13 -50.81,-51.26 -22.22,-11.49 -44.28,-17.21 -68.39,-17.21zm-0.44 -33.78c29.95,0 58.54,7.35 84.97,21.91 26.89,14.51 48.86,36.25 64.05,63.88 15.27,26.7 22.92,55.88 22.92,86.15 0,29.64 -7.33,58.72 -22.52,85.04 -15.28,27.69 -36.19,48.67 -63.24,64.05 -27.32,14.94 -55.71,22.6 -86.18,22.6 -29.44,0 -57.69,-7.66 -84.89,-22.6 -27.5,-15.38 -48.8,-36.36 -63.36,-64.05 -15.58,-26.32 -23.18,-55.4 -23.18,-85.04 0,-30.27 7.6,-59.45 23.67,-86.15 14.89,-27.63 36.36,-49.37 63.63,-63.88 26.44,-14.56 55.08,-21.91 84.13,-21.91z"/>
   <path class="fil6" d="M3247.22 1806.62c200.38,0 363.08,84.83 489,255.46 125.84,170.76 188.9,393.88 188.9,668.86 0,273.26 -63.06,495.82 -188.9,669.2 -123.76,171.02 -286.73,255.91 -489,255.91 -199.72,0 -362.51,-84.89 -488.34,-255.91 -126.23,-171 -188.89,-393.19 -188.89,-669.2 0,-272.53 61.87,-494.34 185.84,-665.02 126.04,-172.82 289.67,-259.3 491.39,-259.3zm27.55 1696.52c43.42,0 73.37,-51.8 89.49,-156.49 18.22,-104.78 27.26,-253.71 27.26,-447.59 0,-295.47 -15.95,-526.51 -48.22,-691.71 -29.71,-165.42 -70.98,-248.44 -122.79,-248.44 -44.26,0 -74.97,52.05 -93.65,156.69 -15.42,104.56 -23.01,253.63 -23.01,447.3 0,295.47 14.55,526.51 44.68,691.87 32.17,166.1 73.76,248.37 126.24,248.37z"/>
   <path class="fil3" d="M3151.53 1755.98c199.99,0 362.78,84.95 488.51,255.96 126.36,170.75 189.71,393.24 189.71,669.06 0,272.78 -63.35,495.8 -189.71,668.62 -123.72,171.56 -286.1,256.98 -488.51,256.98 -199.64,0 -362.98,-85.42 -488.21,-256.98 -126.36,-170.18 -189.35,-393.26 -189.35,-668.62 0,-272.93 62.01,-494.61 186.3,-665.17 125.32,-173.45 289.67,-259.85 491.26,-259.85zm26.98 1697.5c43.97,0 74.5,-52.81 90.28,-157.06 18.14,-104.43 27.16,-254.14 27.16,-447.26 0,-295.13 -16.33,-526.55 -48.08,-691.96 -30.35,-165.56 -71.61,-248.19 -122.71,-248.19 -44.35,0 -75.69,52.57 -93.09,156.37 -16.25,104.24 -24.29,253.2 -24.29,447.43 0,295.48 14.93,526.14 45.03,692.31 31.72,165.08 74.09,248.36 125.7,248.36z"/>
   <path class="fil6" d="M4136.4 1488.83c0,-64.12 -5.58,-107.27 -15.55,-130.38 -8.05,-25.49 -28.91,-43 -62.94,-53.69 -32.02,-9.78 -53.92,-18.52 -65.76,-27.06 -10.41,-10.04 -15.37,-25.94 -15.37,-49.3 0,-35.73 23.18,-61.09 69.19,-76.25 47.68,-15.57 111.22,-35.47 188.77,-61.28 80.21,-25 160.36,-56.28 239.85,-91.56 80.13,-38.3 126.03,-56.95 138.35,-56.95 17.96,0 26.5,37.36 26.5,114.42l0 1536.92c0,25.44 6.09,37.63 18.32,37.63 9.86,0 56.85,-74.79 140.48,-224.45 86.35,-151.28 128.69,-249.19 128.69,-295.02 0,-63.93 -25.39,-103.26 -77.12,-118.45 -52.44,-15.19 -78.05,-42.26 -78.05,-80.38 0,-25.62 6.58,-41.89 20.91,-49.68 16.13,-7.77 44.64,-11.61 86.42,-11.61 20.58,0 59.21,2.77 117.35,7.6 60.09,5.21 92.81,7.86 98.93,7.86 40.16,0 83.51,-2.65 132.18,-7.86 47.78,-4.83 80,-7.6 96.06,-7.6 37.95,0 56.59,19.4 56.59,57.21 0,25.68 -5.02,42.2 -15.18,50 -9.92,8.09 -44.59,23.23 -104.76,46.08 -57.69,19.73 -107.71,46.61 -150.27,79.83 -41.63,33.41 -62.53,76.41 -62.53,130.1 0,51 33.9,189.9 101.65,416.37 68.51,227.02 123.66,412.13 168.12,554.83 44.33,142.8 90.18,233.41 137.97,271.15 48.11,38.38 71.71,69.96 71.71,95.97 0,37.74 -20.91,56.9 -62.54,56.9 -33.55,0 -87.22,-2.59 -159,-7.49 -70.03,-5.14 -110.23,-7.53 -119.83,-7.53 -50.01,0 -94.89,2.39 -134.9,7.53 -40.62,4.9 -67.19,7.49 -81.21,7.49 -23.96,0 -47.9,-35.61 -71.83,-107.01 -24.06,-73.55 -60.98,-187.22 -111.29,-339.93 -49.84,-155.5 -83.82,-257.67 -101.99,-305.96 -15.63,-48.29 -26.56,-73.28 -32.75,-73.28 -7.93,0 -12.13,17.57 -12.13,50.61l0 538.87c0,40.69 15.09,75.11 44.88,103.43 32.5,25.06 48.42,47.1 48.42,64.57 0,45.83 -20.01,68.7 -59.88,68.7 -10.57,0 -44.34,-2.59 -102.18,-7.49 -58.09,-5.14 -127.8,-7.53 -210.19,-7.53 -71.73,0 -130.45,0.99 -176.34,3.39 -44.27,2.32 -90.5,6.61 -138.18,11.63 -44.63,0 -66.23,-22.87 -66.23,-68.7 0,-20.3 7.59,-36.5 21.6,-49.94 15.64,-14.63 37.43,-26.11 65.3,-34.23 28.33,-10.04 46.16,-25.12 54.21,-46.09 9.97,-22.65 15.55,-58.21 15.55,-106.51l0 -1815.88z"/>
   <path class="fil3" d="M4040.45 1438.69c0,-63.99 -5.32,-107.39 -15.7,-130.24 -7.77,-25.26 -28.8,-42.96 -62.36,-53.19 -32.03,-10.55 -54.18,-20.05 -66.16,-27.13 -10.26,-9.98 -14.76,-26.7 -14.76,-49.93 0,-35.67 22.71,-60.85 68.81,-75.8 47.96,-15.77 111.11,-36.49 188.7,-61.66 80.2,-25.39 160.21,-56.09 239.85,-91.57 80.13,-38.23 126.03,-57.46 138.31,-57.46 17.72,0 26.85,38.56 26.85,114.93l0 1536.37c0,25.63 6.01,38.37 18.08,38.37 9.86,0 56.96,-74.99 140.91,-225.45 85.75,-150.08 128.82,-248.44 128.82,-294.34 0,-63.6 -26.01,-103.5 -78.08,-118.81 -51.81,-14.89 -78.24,-41.59 -78.24,-79.95 0,-25.24 7.35,-41.76 21.42,-49.55 15.94,-7.66 44.72,-11.93 87.11,-11.93 19.72,0 58.88,3.07 116.85,8.09 59.47,5.23 92.7,7.98 98.89,7.98 40.15,0 83.77,-2.75 131.83,-7.98 47.72,-5.02 80.02,-8.09 96.04,-8.09 37.61,0 56.82,19.72 56.82,57.27 0,25.81 -4.73,42.57 -14.68,50.38 -10.04,7.08 -45.17,22.73 -105.09,45.83 -57.88,20.28 -108.14,46.98 -149.93,80.07 -42.15,33.1 -62.95,76.68 -62.95,130.06 0,50.68 33.99,189.78 101.8,416.42 68.09,226.9 123.65,411.59 168.05,554.83 43.59,142.48 89.98,233.04 138.16,270.65 47.61,38.81 71.7,70.77 71.7,95.77 0,38.26 -20.76,58.1 -63.35,58.1 -33.59,0 -86.34,-2.77 -158.13,-8.11 -70.22,-5.15 -110.54,-7.4 -120.77,-7.4 -49.35,0 -94.63,2.25 -134.32,7.4 -40.06,5.34 -66.82,8.11 -80.87,8.11 -24.25,0 -48.43,-36.11 -72.16,-107.26 -24.06,-74.1 -61.48,-187.59 -110.83,-340.19 -50.13,-155.98 -84.24,-257.73 -101.98,-306.02 -16.65,-48.22 -27.02,-72.97 -33.43,-72.97 -7.98,0 -11.67,16.95 -11.67,49.67l0 538.76c0,41.51 14.94,76.05 45.1,103.86 31.64,25.49 47.9,47.42 47.9,64.95 0,45.9 -20.05,69.2 -60.04,69.2 -10.35,0 -44.21,-2.77 -102.04,-8.11 -58.28,-5.15 -127.79,-7.4 -209.81,-7.4 -71.79,0 -131.25,0.99 -176.67,3.65 -44.03,2.38 -90.19,6.39 -138.15,11.86 -44.33,0 -66.14,-23.3 -66.14,-69.2 0,-20.55 7.19,-37.12 20.74,-50.06 16.26,-14.89 38.48,-26.18 66,-34.61 28.32,-9.91 46.1,-25.29 53.87,-45.4 10.38,-22.47 15.7,-58.28 15.7,-107.38l0 -1815.39z"/>
   <path class="fil6" d="M5766.96 2352.2c0,-63.38 -5.4,-106.96 -15.44,-129.89 -7.27,-24.92 -28,-43.01 -62.16,-52.99 -32.36,-10.56 -54.22,-19.53 -66.16,-27 -9.85,-10.12 -15.23,-26.69 -15.23,-49.74 0,-35.79 23.06,-61 69.47,-76.17 47.65,-15.21 110.31,-35.99 188.44,-61.24 78,-25.69 144.94,-51.43 201.01,-76.61 55.95,-25.38 109.09,-49.5 159.07,-71.97 11.81,0 19.09,9.47 21.1,29.38 3.58,18.54 5.81,48.67 5.81,92.89l0 163.72c0,33.22 6,49.74 17.89,49.74 8.29,0 28.8,-21.61 63.09,-64.88 33.98,-43.35 63.94,-79.94 89.87,-110.4 28.07,-30.78 64.29,-61.8 108.07,-92.64 43.72,-30.32 88.66,-45.34 134.59,-45.34 86.33,0 148.86,22.68 189.26,68.21 39.95,46.1 69.78,92.44 90,137.65 19.92,43.89 31.61,68.84 35.91,76.94 6.05,4.82 9.8,7.97 11.92,7.97 2.03,0 12.64,-9.93 33.25,-30.9 73.6,-89.11 132.51,-154.3 176.65,-195.24 45.9,-43.13 107.41,-64.63 183.12,-64.63 106.26,0 190.73,43.03 254.25,129.89 66.46,83.77 99.25,203.97 99.25,359.63l0 1046.98c0,35.67 20.24,66.63 59.88,91.75 40.02,26.14 60.33,54.4 60.33,84.17 0,45.76 -21.94,68.7 -66.2,68.7 -8.29,0 -50.76,-2.59 -129.01,-7.49 -75.72,-5.14 -130.74,-7.53 -164.9,-7.53 -45.66,0 -93.15,0.99 -140.74,3.39 -48.28,2.32 -99.97,6.61 -155.98,11.63 -30.15,0 -44.83,-20.16 -44.83,-60.92 0,-18.34 16.05,-40.57 47.72,-68.94 31.88,-28.03 48.23,-80.15 48.23,-156.7l0 -852.25c0,-71.9 -9.93,-127.04 -30.08,-168.37 -19.89,-40.81 -58.29,-61.46 -113.74,-61.46 -34.41,0 -61.96,11.8 -83.95,34.46 -20.61,20.61 -30.03,51.33 -30.03,91.89l0 1036.1c0,25.63 11.88,48.3 35.06,68.59 26.68,18.14 40.31,39.8 40.31,65.06 0,48.53 -24.74,72.54 -72.85,72.54 -3.71,0 -41.77,-2.59 -113.47,-7.49 -72.04,-5.14 -117.87,-7.53 -138.47,-7.53 -124.05,10 -197.95,15.02 -221.67,15.02 -23.7,0 -43.97,-5.02 -59.81,-15.02 -14,-12.81 -21.09,-34.1 -21.09,-65.31 0,-22.53 11.05,-43.2 33.08,-60.97 21.88,-17.59 32.91,-49.31 32.91,-95.4l0 -906.38c0,-78.57 -7.77,-136.33 -23.85,-171.74 -14.15,-35.49 -44.2,-53.82 -90.1,-53.82 -45.72,0 -82.3,23.03 -108.11,68.94 -23.86,46.16 -35.76,106.01 -35.76,179.74l0 875.34c0,31.03 15.37,62.12 44.8,95.53 32.35,30.45 48.19,56.63 48.19,76.55 0,25.8 -8.81,44.71 -27.38,57.52 -15.9,10 -34.88,15.02 -56.66,15.02 -35.86,-2.59 -79.76,-5.98 -132.24,-11.63 -49.69,-2.4 -85.61,-3.39 -107.89,-3.39 -81.73,0 -145.77,0.99 -191.66,3.39 -46.09,2.32 -91.63,6.61 -137.92,11.63 -29.96,0 -49.99,-7.49 -60.1,-22.94 -10.17,-15.06 -14.83,-31.95 -14.83,-49.6 0,-17.28 4.66,-34.47 14.83,-48.8 10.11,-16.26 30.14,-27.75 60.1,-35.36 32.02,-7.6 52.14,-21.29 59.41,-42.26 10.04,-19.72 15.44,-55.89 15.44,-106.57l0 -952.45z"/>
   <path class="fil3" d="M5671.51 2302.72c0,-64.11 -5.22,-107.37 -15.16,-130.35 -8.22,-25.26 -28.88,-43.35 -62.91,-53.34 -32.04,-9.85 -54.2,-19.01 -66.02,-26.68 -9.89,-10.17 -15.38,-27.01 -15.38,-49.67 0,-36.43 23.3,-61.86 69.41,-76.24 47.97,-15.58 111.01,-36.37 188.95,-61.48 77.88,-25.75 144.57,-51.06 200.27,-76.55 56.2,-25.37 109.66,-49.81 159.19,-72.47 12.24,0 19.61,9.87 21.47,30.34 3.76,18.13 5.42,48.71 5.42,91.74l0 164.66c0,33.09 6.35,49.67 18.29,49.67 7.78,0 28.61,-21.67 63.09,-64.82 33.71,-43.58 64.05,-80.7 89.68,-111.45 28.19,-30.71 63.91,-60.99 107.7,-91.58 44.47,-30.45 89.81,-45.9 135.7,-45.9 85.41,0 148.46,22.81 188.57,68.88 40.02,46.12 70.21,91.95 89.93,137.5 20.25,43.32 32.17,69.07 35.99,76.65 6.4,5.23 9.98,7.79 11.82,7.79 2.69,0 13.26,-10.35 32.9,-30.77 73.91,-89.48 133.13,-154.22 177.41,-195.16 45.22,-43.48 106.71,-64.89 182.26,-64.89 106.12,0 191.07,43.6 255.21,130.38 65.98,83.64 99.15,203.97 99.15,358.96l0 1047.98c0,35.86 19.65,65.62 59.41,91 40.77,25.73 60.35,53.94 60.35,84.59 0,45.9 -21.49,69.22 -66,69.22 -7.8,0 -50.63,-2.79 -128.39,-8.11 -76.02,-5.17 -131.24,-7.43 -165.34,-7.43 -46.07,0 -92.92,1.02 -140.8,3.65 -47.97,2.39 -100.27,6.42 -155.85,11.89 -30.14,0 -45.51,-20.6 -45.51,-61.62 0,-18.03 16.05,-40.37 48.67,-69.27 31.66,-27.57 47.57,-80.19 47.57,-155.87l0 -852.99c0,-71.15 -10.16,-127.05 -30.06,-168.18 -19.6,-40.69 -58.22,-61.23 -113.63,-61.23 -34.07,0 -62.28,10.61 -84.45,34.49 -19.64,20.34 -29.51,51.05 -29.51,91.54l0 1036.45c0,25.36 11.79,48.22 35.68,68.88 25.85,17.53 39.37,39.51 39.37,65.05 0,48.37 -23.93,72.75 -72.24,72.75 -3.51,0 -41.87,-2.79 -114.3,-8.11 -71.71,-5.17 -117.61,-7.43 -137.49,-7.43 -124.18,10.07 -198.04,15.54 -222.03,15.54 -23.54,0 -43.74,-5.47 -60.19,-15.54 -13.71,-12.49 -20.81,-34.46 -20.81,-65.18 0,-22.98 11.12,-43.58 33.28,-61.29 21.98,-18.09 33.05,-49.5 33.05,-96.02l0 -905.5c0,-79.37 -8.53,-136.47 -23.95,-172.11 -14.31,-35.88 -44.43,-53.52 -90.31,-53.52 -45.74,0 -81.74,22.98 -107.85,68.76 -24.25,45.96 -36.37,105.82 -36.37,179.81l0 875.78c0,30.32 15.19,62.1 45.54,95.27 31.77,30.26 47.88,55.58 47.88,76.79 0,25.2 -9.03,44.72 -27.18,57.21 -15.92,10.07 -34.78,15.54 -56.9,15.54 -36.23,-2.79 -80.37,-6.91 -131.86,-11.89 -50.37,-2.63 -86.34,-3.65 -107.97,-3.65 -81.63,0 -145.79,1.02 -192.09,3.65 -45.4,2.39 -91.74,6.42 -137.96,11.89 -29.83,0 -49.88,-8.11 -59.8,-23.32 -10.16,-15.2 -14.86,-31.89 -14.86,-49.43 0,-18.64 4.7,-34.47 14.86,-49.86 9.92,-15.19 29.97,-26.93 59.8,-34.53 32.32,-7.23 51.92,-22.05 60.14,-42.14 9.94,-20.41 15.16,-55.77 15.16,-107.39l0 -951.34z"/>
   <path class="fil6" d="M9199.8 3175.04c0,60.47 20.05,91.24 59.77,91.24 32.17,0 57.09,-11.55 75,-34.91 18.13,-22.3 29.01,-34.1 33.21,-34.1 17.96,0 26.51,23.18 26.51,69.01 0,84.22 -36.03,170.44 -107.51,259.62 -70.22,86.79 -152.58,130.18 -249.39,130.18 -69.56,0 -128.87,-25.06 -176.24,-76.13 -42.59,-55.94 -84.43,-111.88 -126.51,-168.73 -11.92,0 -37.68,18.4 -77.66,54.21 -40.03,35.85 -74.75,64.42 -105.52,87.85 -29.77,23.17 -68.58,45.27 -116.74,68.51 -47.91,23.56 -96.69,34.29 -146.42,34.29 -92.34,0 -168,-34.29 -227.72,-102.8 -58.74,-71.59 -87.11,-167.5 -87.11,-287 0,-114.6 28.37,-221.79 87.11,-321.03 59.72,-99.67 146.36,-180.78 260.44,-244.36 116.14,-66.5 212.91,-119.93 290.54,-160.87 56.44,-35.49 84.17,-81.65 84.17,-137.28l0 -290.88c0,-101.99 -27.73,-152.91 -84.17,-152.91 -27.5,0 -52.5,17.89 -74.46,53.56 -20.31,35.42 -43.97,104.17 -71.97,206.42 -25.88,99.65 -73.6,181.92 -144.11,248.17 -67.92,64.32 -135.23,95.84 -200.72,95.84 -51.82,0 -90.42,-12.69 -114.11,-37.94 -22.18,-28.24 -32.72,-74.41 -32.72,-137.84 0,-150.51 67.51,-284.34 203.61,-401.54 135.95,-119.89 304.04,-179.03 503.89,-179.03 199.89,0 336.15,33.85 407.99,102.36 73.67,66.82 110.84,165.84 110.84,298.35l0 967.74zm-621.14 159.82c78.32,0 117.07,-55.26 117.07,-167.55l0 -451.46c0,-30.13 -6.9,-45.84 -20.73,-45.84 -34.04,0 -76.25,51.24 -125.74,152.8 -48.32,99.72 -72.21,209.36 -72.21,328.87 0,122.26 34,183.18 101.61,183.18z"/>
   <path class="fil3" d="M9103.92 3124.48c0,60.97 20.29,91.43 59.6,91.43 32.02,0 57.29,-10.79 75.48,-33.79 17.53,-22.86 28.45,-34.46 33.04,-34.46 17.82,0 26.51,22.6 26.51,68.25 0,84.16 -36.04,171.26 -107.53,259.86 -70.44,87.05 -152.92,130.83 -248.67,130.83 -70.48,0 -129.11,-26.31 -177.67,-76.75 -41.7,-55.9 -83.77,-112.42 -125.54,-168.43 -11.92,0 -37.72,17.96 -77.92,53.82 -40,35.6 -75.16,64.74 -104.96,87.41 -29.93,23.18 -69.19,46.23 -116.54,69.21 -48.79,23.3 -97.45,34.74 -147.3,34.74 -92.01,0 -168.12,-34.74 -228.03,-103.95 -58.1,-71.21 -87.17,-166.79 -87.17,-286.74 0,-114.6 29.07,-221.61 87.17,-321.03 59.91,-99.22 146.65,-180.79 261.11,-244.84 115.86,-66.2 213.15,-119.57 290.57,-160.08 56.02,-35.93 84.29,-81.89 84.29,-137.79l0 -290.57c0,-101.99 -28.27,-152.59 -84.29,-152.59 -27.94,0 -52.81,17.19 -74.85,53.32 -19.93,35.67 -43.67,104.5 -72.18,206.1 -26.36,99.55 -73.46,182.05 -143.54,248.81 -68.4,63.79 -134.89,95.57 -201.2,95.57 -52.13,0 -89.67,-12.92 -114.1,-38.73 -21.88,-27.58 -32.98,-73.41 -32.98,-137.54 0,-150.15 68.66,-283.91 204.68,-401.29 135.24,-120.07 303.1,-179.27 503.06,-179.27 200.03,0 335.7,34.28 408.01,102.67 73.43,66.18 110.95,166.08 110.95,298.55l0 967.28zm-621.06 160.32c78.36,0 117.5,-56.27 117.5,-168.17l0 -450.89c0,-30.08 -7.62,-46.22 -20.83,-46.22 -33.83,0 -76.58,51.43 -126.21,153.27 -47.78,98.98 -72.16,209.02 -72.16,328.52 0,122.4 34.28,183.49 101.7,183.49z"/>
   <path class="fil6" d="M9643.77 2352.2c0,-63.38 -4.84,-106.96 -15.07,-129.89 -7.85,-24.92 -28.55,-43.01 -62.84,-52.99 -31.73,-10.56 -54.07,-19.53 -66.02,-27 -9.68,-10.12 -14.57,-26.69 -14.57,-49.74 0,-35.79 22.61,-61 68.76,-76.17 48.05,-15.21 117.84,-36.87 209.7,-65.26 91.97,-30.59 173.52,-62.74 242.77,-95.57 72.09,-32.79 109.96,-48.99 114.49,-48.99 11.61,0 18.64,9.47 20.76,29.38 4.03,18.54 5.81,48.67 5.81,92.89 0,126.6 5.35,190.97 14.89,190.97 16.27,0 40.12,-20.79 72.21,-61.66 31.77,-40.69 61.04,-75.99 87.09,-107.02 27.83,-30.59 62.49,-58.02 104.7,-83.95 43.96,-25.31 95.25,-38.14 152.72,-38.14 132.01,0 227.26,47.81 284.85,144.94 58.2,96.91 87.3,225.53 87.3,386.46l0 1008.99c0,53.9 23.17,85.61 68.95,95.98 46.15,10.11 69.08,32.77 69.08,68.94 0,37.81 -8.3,59.4 -24.23,64.18 -15.84,8.05 -42.78,11.63 -80.84,11.63l-290.76 -15.02c-38.43,0 -80.38,0.99 -126.16,3.39 -44.14,2.32 -92.25,6.61 -143.81,11.63 -44.03,0 -65.98,-25.06 -65.98,-75.81 0,-22.66 14.87,-45.53 45.2,-68.94 29.43,-22.88 44.53,-44.55 44.53,-65.26l0 -959.63c0,-79 -10.75,-138.91 -32.92,-179.72 -19.91,-43.2 -48.85,-65.01 -86.89,-65.01 -45.8,0 -88.08,19.1 -126.18,57.53 -35.31,35.48 -53.75,79.12 -53.75,129.81l0 1001.96c0,25.3 14.12,50.6 42.18,75.98 29.58,23.42 44.92,46.23 44.92,68.76 0,54.01 -20.3,80.33 -59.81,80.33 -3.98,0 -32.39,-2.59 -84.46,-7.49 -52,-5.14 -110.01,-7.53 -173.87,-7.53 -81.9,0 -147.88,0.99 -197.39,3.39 -48.47,2.32 -98.28,6.61 -150.17,11.63 -18.19,0 -33.77,-5.98 -47.76,-19.16 -14.27,-12.18 -21.36,-29.07 -21.36,-49.54 0,-28.07 5.96,-46.74 18.08,-56.97 12.13,-13.5 30.96,-21.42 56.97,-27.2 28.13,-5.02 45.96,-18.34 53.81,-41.74 10.23,-23.01 15.07,-60.24 15.07,-110.92l0 -952.45z"/>
   <path class="fil3" d="M9548.1 2302.72c0,-64.11 -5.15,-107.37 -14.76,-130.35 -8.11,-25.26 -29.21,-43.35 -62.98,-53.34 -32.34,-9.85 -54.38,-19.01 -66.31,-26.68 -9.93,-10.17 -14.76,-27.01 -14.76,-49.67 0,-36.43 22.87,-61.86 68.94,-76.24 47.61,-15.58 118.05,-36.92 209.69,-65.25 92.08,-30.71 172.7,-62.66 243.16,-95.58 71.97,-33.4 110.1,-49.67 113.86,-49.67 11.8,0 19.17,9.87 20.76,30.34 4.36,18.13 6.11,48.71 6.11,91.74 0,127.54 5.2,191.4 14.93,191.4 15.9,0 40.46,-21.03 72.17,-61.54 31.9,-40.37 60.96,-76.16 86.6,-106.69 28.18,-30.71 63.18,-58.84 105.5,-83.77 43.77,-26.01 94.72,-38.82 152.66,-38.82 132.19,0 226.84,48.3 285.08,145.46 57.51,96.56 86.9,225.74 86.9,385.77l0 1009.41c0,53.32 22.67,85.54 68.58,96.03 45.88,9.93 69.14,32.91 69.14,68.75 0,38.19 -8.36,59.8 -23.79,64.82 -15.9,7.11 -43.1,11.89 -81.15,11.89l-290.94 -15.54c-37.64,0 -80.02,1.02 -125.43,3.65 -44.52,2.39 -92.49,6.42 -144.18,11.89 -43.97,0 -66.17,-25.64 -66.17,-76.71 0,-23.16 14.76,-45.9 44.82,-68.75 30.28,-23.31 45.21,-45.02 45.21,-65.62l0 -959.46c0,-78.67 -11.06,-138.77 -33.23,-179.39 -19.6,-43.47 -48.52,-65.06 -86.9,-65.06 -45.39,0 -87.47,19.27 -125.79,56.44 -35.87,36.43 -54.01,80.33 -54.01,131.08l0 1001.63c0,25.56 14.39,50.94 41.71,76.3 30.41,22.85 45.39,45.84 45.39,68.82 0,53.51 -20.34,80.72 -59.65,80.72 -4.42,0 -32.48,-2.79 -84.32,-8.11 -52,-5.17 -110.42,-7.43 -173.92,-7.43 -81.95,0 -147.92,1.02 -198.12,3.65 -47.78,2.39 -97.67,6.42 -149.67,11.89 -18.45,0 -34.34,-6.91 -48.08,-19.85 -13.83,-11.93 -21.1,-28.58 -21.1,-49.37 0,-28.07 5.91,-47.16 18.13,-57.47 12.14,-12.49 30.84,-21.22 56.98,-27.12 27.93,-4.65 46.07,-18.65 54.18,-41.76 9.61,-22.61 14.76,-59.48 14.76,-111.1l0 -951.34z"/>
   <path class="fil6" d="M1897 3286.2c0,57.92 3.12,99.61 11.92,122.09 7.8,20.09 26.07,30.52 53.9,30.52 121.72,0 203.11,-88.73 242.61,-267.51 42.17,-178.04 69.12,-285.61 80.99,-321.1 14.07,-38.63 33.15,-57.21 56.96,-57.21 24,0 39.18,16.4 44.92,49.57 8.07,33.13 12.29,111.71 12.29,237.05 0,259.8 -1.95,412.97 -6.04,458.74 -3.87,45.9 -18.51,69.22 -42.27,69.22 -95.5,0 -197.93,-2.77 -305.18,-8.11 -106.43,-2.38 -193.16,-5.15 -261.45,-7.4 -113.73,0 -145.31,-1.55 -234.99,1.08 -91.39,0.91 -151.56,3.51 -213.83,11.37 -80.42,13.75 -101.3,-22.64 -101.3,-73.62 5.09,-38.31 30.79,-58.35 90.52,-78.01 65.19,-25.84 68.28,-83.32 68.28,-159.07l0 -1318.07c0,-74.43 0.1,-117.38 -41.97,-130.13 -40.14,-15.45 -66.83,-27.94 -80.97,-38.24 -11.99,-12.61 -18.28,-30.9 -18.28,-53.51 0,-50.99 29.9,-76.3 89.88,-76.3 28.46,0 75.42,2.14 140.85,7.61 123.5,8.9 172.4,8.45 295.93,3.95 51.99,-2.38 109.13,-6.54 171.42,-11.56 19.72,0 41.9,0.7 65.44,3.83 26.38,2.19 38.7,20.15 38.7,53.31 0,25.57 -7.36,44.48 -23.74,57.14 -21.89,10.77 -45.02,21.95 -68.77,34.44 -22.15,13.37 -39.32,25.79 -50.87,38.73 -10.29,9.74 -14.95,46.86 -14.95,110.73l0 1310.46z"/>
   <path class="fil3" d="M1805.34 3239.36c0,57.92 3.13,99.61 11.94,122.09 7.78,20.09 26.07,30.52 53.9,30.52 121.7,0 203.09,-88.73 242.59,-267.51 42.19,-178.04 69.12,-285.61 81.01,-321.1 14.05,-38.63 33.15,-57.21 56.94,-57.21 24,0 39.18,16.4 44.92,49.57 8.09,33.13 12.29,111.71 12.29,237.05 0,259.8 -1.95,412.97 -6.04,458.74 -3.87,45.9 -18.51,69.22 -42.25,69.22 -95.52,0 -197.93,-2.77 -305.2,-8.11 -106.43,-2.38 -193.16,-5.15 -261.45,-7.4 -113.73,0 -145.31,-1.55 -234.97,1.08 -91.41,0.91 -151.58,3.5 -213.83,11.37 -80.43,13.74 -101.3,-22.64 -101.3,-73.62 5.09,-38.31 30.79,-58.35 90.5,-78.01 65.19,-25.84 68.28,-83.32 68.28,-159.07l0 -1318.07c0,-74.43 0.1,-117.38 -41.97,-130.13 -40.12,-15.45 -66.83,-27.94 -80.95,-38.24 -12.01,-12.61 -18.3,-30.9 -18.3,-53.51 0,-50.99 29.92,-76.3 89.9,-76.3 28.44,0 75.42,2.14 140.83,7.61 123.52,8.9 172.4,8.45 295.95,3.95 51.97,-2.38 109.11,-6.54 171.4,-11.56 19.74,0 41.9,0.7 65.46,3.83 26.38,2.19 38.68,20.15 38.68,53.31 0,25.57 -7.34,44.48 -23.72,57.14 -21.89,10.77 -45.04,21.95 -68.77,34.44 -22.17,13.37 -39.34,25.79 -50.87,38.73 -10.31,9.74 -14.97,46.86 -14.97,110.73l0 1310.46z"/>
  </g>
 </g>
</svg>
